<?xml version="1.0" encoding="utf-8"?>
<!-- Generator: Adobe Illustrator 25.0.1, SVG Export Plug-In . SVG Version: 6.00 Build 0)  -->
<svg version="1.0"
	 id="Layer_1" xmlns:cc="http://creativecommons.org/ns#" xmlns:dc="http://purl.org/dc/elements/1.1/" xmlns:rdf="http://www.w3.org/1999/02/22-rdf-syntax-ns#"
	 xmlns="http://www.w3.org/2000/svg" xmlns:xlink="http://www.w3.org/1999/xlink" x="0px" y="0px" width="1080px" height="1080px"
	 viewBox="0 0 1080 1080" enable-background="new 0 0 1080 1080" xml:space="preserve">
<circle fill="#005B0C" cx="540" cy="540" r="518.4"/>
<circle id="ring" fill="none" stroke="#FFFFFF" stroke-width="53.231" stroke-miterlimit="4.32" cx="540" cy="540" r="415.8"/>
<path id="letter_n" fill="#FFFFFF" d="M450.9,383.8v12.8c18.6-24.5,38.8-42.4,60.7-53.7c22.2-11.6,47.6-17.4,76.2-17.4
	c27.8,0,52.7,6.1,74.6,18.2c21.9,12.1,38.3,29.3,49.1,51.4c7,12.9,11.5,26.8,13.5,41.8c2.1,15,3.1,34,3.1,57.2v196.4
	c0,21.1-4.9,37.1-14.7,47.9c-9.5,10.8-22,16.2-37.5,16.2c-15.7,0-28.5-5.5-38.3-16.6c-9.8-11.1-14.7-26.9-14.7-47.6V514.5
	c0-34.8-4.9-61.4-14.7-79.7c-9.5-18.6-28.7-27.8-57.6-27.8c-18.8,0-36,5.7-51.4,17c-15.5,11.1-26.8,26.4-34,46
	c-5.2,15.7-7.7,45.1-7.7,88.2v132.2c0,21.4-5,37.5-15.1,48.3c-9.8,10.6-22.6,15.9-38.3,15.9c-15.2,0-27.7-5.5-37.5-16.6
	c-9.8-11.1-14.7-26.9-14.7-47.6V385.3c0-20.1,4.4-35.1,13.1-44.9c8.8-10.1,20.8-15.1,36-15.1c9.3,0,17.7,2.2,25.1,6.6
	c7.5,4.4,13.4,11,17.8,19.7C448.5,360.4,450.9,371.1,450.9,383.8L450.9,383.8z"/>
<g id="circles">
	<circle fill="#FFFFFF" cx="540" cy="128.2" r="64.8"/>
	<circle fill="#FFFFFF" cx="896.6" cy="745.9" r="64.8"/>
	<circle fill="#FFFFFF" cx="183.4" cy="745.9" r="64.8"/>
</g>
</svg>
